# xmcd
#
# Track frame offsets: 
#        150
#        16440
#        36629
#        53581
#        73952
#        98588
#        119223
#        142226
#        165665
#        191344
#
# Disc length: 2850 seconds
#
# Revision: 0
# Processed by: cddbd v1.5.1PL0 Copyright (c) Steve Scherf et al.
# Submitted via: ExactAudioCopy v0.95a5
#
DISCID=960b200a
DTITLE=Melvin Cesarín - Un Siglo Sin Ti
DYEAR=2005
DGENRE=Latin
TTITLE0=Matalas
TTITLE1=Porque Me Niegas
TTITLE2=Por Amarte
TTITLE3=Esperare Por Ti
TTITLE4=Te Quiero Mas
TTITLE5=Un Siglo Sin Ti
TTITLE6=Me Enamore De Ti
TTITLE7=Celos
TTITLE8=Siempre Te Amare
TTITLE9=No Puedo Vivir Sin Ti
EXTD=
EXTT0=
EXTT1=
EXTT2=
EXTT3=
EXTT4=
EXTT5=
EXTT6=
EXTT7=
EXTT8=
EXTT9=
PLAYORDER=
